<?xml version="1.0" standalone="no"?>
<!DOCTYPE svg PUBLIC "-//W3C//DTD SVG 20010904//EN"
 "http://www.w3.org/TR/2001/REC-SVG-20010904/DTD/svg10.dtd">
<svg version="1.0" xmlns="http://www.w3.org/2000/svg"
 width="1080.000000pt" height="1080.000000pt" viewBox="0 0 1080.000000 1080.000000"
 preserveAspectRatio="xMidYMid meet">
<metadata>
Created by potrace 1.16, written by Peter Selinger 2001-2019
</metadata>
<g transform="translate(0.000000,1080.000000) scale(0.100000,-0.100000)"
fill="#000000" stroke="none">
<path d="M0 5400 l0 -5400 5400 0 5400 0 0 5400 0 5400 -5400 0 -5400 0 0
-5400z m5938 4811 c1215 -159 2261 -758 3046 -1746 107 -135 310 -438 402
-600 334 -590 547 -1267 620 -1970 22 -209 25 -741 6 -940 -53 -543 -177
-1038 -378 -1516 -367 -872 -994 -1630 -1774 -2144 -963 -634 -2128 -874
-3255 -669 -908 164 -1733 602 -2405 1274 -838 838 -1335 1945 -1421 3165 -14
210 -7 653 15 855 126 1152 615 2188 1406 2980 738 737 1694 1204 2695 1314
215 24 210 24 555 21 263 -2 356 -7 488 -24z"/>
<path d="M5620 10143 c0 -5 -16 -111 -34 -238 -19 -126 -33 -231 -31 -233 4
-5 345 -35 349 -31 2 2 6 27 8 54 l3 50 -103 6 c-57 4 -105 9 -108 12 -3 3 -2
22 2 42 l7 37 93 -4 c90 -3 94 -2 94 18 0 12 3 35 6 51 l6 30 -87 6 c-48 3
-90 8 -92 11 -3 3 -2 23 2 46 6 36 10 41 29 37 11 -3 60 -9 107 -12 l86 -7 7
48 c3 26 5 49 3 50 -3 3 -308 34 -334 34 -7 0 -13 -3 -13 -7z"/>
<path d="M5053 10132 c-9 -6 -15 -74 -20 -246 l-6 -239 139 5 c185 6 237 29
287 123 17 32 21 58 22 135 0 86 -3 99 -27 142 -44 74 -84 88 -249 88 -74 0
-140 -4 -146 -8z m249 -121 c29 -26 32 -35 36 -97 4 -52 0 -75 -13 -100 -22
-40 -73 -66 -123 -62 l-37 3 -3 129 c-1 72 0 136 2 143 4 8 24 13 56 13 41 0
55 -5 82 -29z"/>
<path d="M4283 10007 c-46 -12 -74 -26 -77 -36 -16 -58 -89 -502 -83 -507 3
-4 35 1 71 11 l65 18 7 68 c4 38 12 73 18 77 11 9 124 42 143 42 5 0 26 -26
46 -59 l37 -58 66 18 c37 10 68 20 70 22 5 4 -275 422 -283 423 -5 1 -41 -8
-80 -19z"/>
<path d="M6477 9963 c-9 -21 -49 -120 -91 -221 l-75 -183 32 -14 c71 -29 66
-34 134 135 34 85 63 151 63 145 0 -5 -7 -78 -16 -161 -10 -83 -15 -158 -12
-166 7 -17 91 -44 106 -34 6 3 51 65 102 137 51 71 94 128 96 126 2 -2 -21
-71 -51 -152 -30 -82 -53 -150 -52 -151 15 -10 103 -32 107 -27 10 11 163 444
159 447 -2 2 -35 14 -74 26 -38 13 -75 25 -81 27 -6 2 -50 -50 -99 -117 -48
-67 -89 -120 -90 -118 -2 2 3 59 11 128 8 69 13 134 12 144 -2 14 -22 26 -72
43 -39 12 -75 23 -82 23 -6 0 -19 -17 -27 -37z"/>
<path d="M3700 9796 c-34 -14 -54 -28 -52 -37 2 -12 130 -376 148 -424 4 -8
11 -15 18 -15 23 0 288 114 293 126 3 8 -1 31 -9 53 l-13 40 -93 -39 c-64 -27
-94 -35 -97 -27 -3 7 -31 86 -64 177 -32 90 -62 165 -67 167 -5 1 -34 -8 -64
-21z"/>
<path d="M3368 9629 c-82 -44 -148 -84 -148 -88 0 -5 35 -82 79 -172 43 -90
87 -185 97 -211 10 -27 23 -48 27 -48 5 0 76 37 158 81 134 73 149 84 143 103
-9 30 -34 76 -40 76 -3 0 -44 -22 -91 -50 -47 -27 -88 -50 -92 -50 -8 0 -44
70 -39 75 2 2 38 22 80 45 l77 41 -21 45 c-12 24 -26 44 -32 44 -5 0 -41 -18
-79 -41 -38 -22 -70 -39 -71 -37 -6 6 -36 67 -36 72 0 2 41 26 90 53 50 26 90
51 90 56 0 8 -39 87 -43 87 -1 0 -68 -37 -149 -81z"/>
<path d="M7060 9538 l-212 -162 66 -33 c75 -38 59 -41 149 30 l35 28 72 -36
c70 -35 72 -37 66 -68 -3 -18 -8 -50 -12 -72 l-6 -40 66 -32 c36 -18 66 -29
66 -23 0 5 16 112 35 239 19 126 35 236 35 245 0 10 -27 30 -70 51 -38 19 -71
35 -73 35 -2 0 -100 -73 -217 -162z"/>
<path d="M7526 9302 c-80 -105 -146 -193 -146 -196 0 -7 86 -66 97 -66 5 0 46
52 92 116 46 63 85 113 87 111 3 -3 -4 -76 -16 -163 -11 -88 -20 -162 -20
-165 0 -8 116 -89 128 -89 6 0 197 237 293 366 8 10 -70 74 -91 74 -6 0 -50
-55 -100 -122 -54 -73 -90 -114 -90 -103 0 11 9 83 20 160 11 77 20 149 20
160 0 13 -16 30 -43 48 -23 15 -52 34 -64 43 -21 15 -25 10 -167 -174z"/>
<path d="M3027 9439 c-55 -39 -57 -42 -43 -63 157 -240 174 -274 156 -316 -11
-26 -46 -50 -75 -50 -28 0 -75 54 -146 167 -40 65 -74 120 -76 122 -3 5 -113
-67 -113 -73 0 -16 178 -287 206 -313 45 -44 104 -45 189 -4 73 35 116 74 145
131 37 72 27 107 -80 277 -52 81 -96 151 -99 155 -4 4 -33 -11 -64 -33z"/>
<path d="M5080 9393 c-322 -30 -580 -81 -840 -165 -1010 -325 -1850 -1068
-2321 -2053 -181 -380 -302 -777 -363 -1200 -54 -370 -54 -822 0 -1205 170
-1210 880 -2293 1900 -2900 460 -274 940 -438 1479 -507 198 -25 662 -25 865
0 718 89 1363 363 1934 821 127 102 382 350 496 482 418 484 721 1074 874
1694 186 755 157 1572 -81 2305 -333 1027 -1049 1873 -1983 2341 -436 218
-862 339 -1355 384 -100 9 -521 12 -605 3z m742 -82 c776 -102 1478 -433 2070
-977 546 -502 952 -1195 1142 -1949 92 -366 120 -605 120 -1015 1 -337 -10
-466 -60 -740 -47 -260 -145 -601 -234 -813 -27 -66 -35 -76 -46 -65 -7 7
-177 257 -377 555 l-364 542 -7 118 c-10 164 -32 305 -72 462 -19 73 -34 143
-34 156 0 64 -58 218 -231 618 -105 243 -193 447 -196 453 -3 7 53 34 144 70
311 121 327 138 259 280 -24 50 -44 77 -67 92 -84 51 -269 78 -327 48 -39 -20
-83 -78 -102 -135 -7 -22 -16 -41 -20 -41 -16 0 -137 274 -252 575 -114 299
-134 339 -230 466 -95 127 -153 185 -213 214 -108 50 -286 68 -446 44 -65 -10
-86 -10 -142 4 -70 18 -173 21 -296 8 l-73 -7 -26 38 c-14 21 -33 38 -43 38
-24 0 -24 -5 1 -46 12 -18 17 -35 11 -38 -10 -7 -47 35 -56 65 -6 18 -18 19
-206 19 -109 0 -199 -3 -199 -7 0 -19 -41 -73 -51 -68 -6 4 -3 19 10 41 11 19
16 34 10 34 -11 0 -59 -49 -59 -61 0 -4 -42 -5 -92 -2 -62 4 -131 0 -206 -11
-93 -14 -122 -15 -171 -5 -85 18 -337 -2 -449 -36 -46 -14 -87 -27 -92 -30 -4
-2 -13 -25 -19 -49 -6 -25 -31 -73 -55 -108 -150 -217 -339 -599 -461 -933
-26 -71 -51 -134 -55 -138 -4 -5 -13 8 -20 28 -19 57 -73 111 -132 131 -102
34 -247 -2 -337 -82 -56 -51 -75 -96 -61 -145 22 -76 54 -97 300 -194 80 -31
146 -58 148 -60 2 -2 -18 -45 -44 -96 -282 -561 -462 -1111 -490 -1500 -4 -52
-11 -103 -17 -114 -6 -11 -215 -323 -465 -694 -451 -667 -455 -673 -469 -647
-37 70 -118 274 -169 420 -96 279 -153 523 -195 841 -20 149 -23 212 -23 505
0 368 13 514 75 820 186 932 673 1740 1399 2327 128 104 405 288 558 372 444
244 958 397 1481 441 170 14 543 4 723 -19z m-217 -1057 c42 -15 63 -15 174
-5 173 15 285 14 369 -5 57 -13 81 -14 122 -5 54 12 244 13 295 2 25 -5 36
-18 67 -81 21 -41 41 -88 44 -105 l5 -30 -1189 0 -1190 0 54 106 c51 103 54
106 91 112 62 11 213 8 253 -4 30 -9 57 -8 131 6 78 14 128 16 299 11 113 -4
228 -3 255 3 80 14 168 12 220 -5z m-1311 -70 c-15 -26 -37 -74 -49 -106 -21
-57 -24 -61 -79 -83 -68 -28 -90 -46 -123 -102 -14 -24 -103 -244 -199 -490
-167 -427 -175 -452 -180 -533 -4 -70 -2 -91 13 -119 28 -54 58 -68 213 -97
l145 -27 1060 -9 c1134 -9 1748 0 1910 27 128 21 256 53 283 71 13 9 30 31 38
49 30 73 21 108 -111 452 -135 349 -286 709 -308 730 -8 8 -40 25 -72 38 -49
20 -61 29 -71 57 -6 18 -26 62 -43 97 -18 34 -30 65 -28 68 10 9 68 -29 114
-75 61 -61 181 -228 220 -307 17 -33 45 -100 63 -150 67 -184 195 -495 275
-665 46 -96 93 -206 105 -245 12 -38 80 -205 150 -370 71 -165 132 -308 136
-319 6 -16 2 -15 -32 7 -21 14 -53 28 -70 32 -29 6 -34 2 -69 -45 -21 -28 -74
-78 -119 -112 -142 -107 -318 -299 -430 -469 -44 -66 -33 -63 -276 -79 -91 -6
-237 -17 -325 -25 -589 -54 -1387 -56 -1795 -4 -129 17 -453 38 -591 39 -35 0
-38 4 -81 78 -61 105 -216 268 -351 372 -66 50 -137 115 -173 159 -35 41 -68
78 -76 82 -16 9 -83 -13 -120 -41 -15 -11 -28 -16 -28 -10 0 24 76 196 187
423 40 81 83 178 94 215 12 37 30 83 40 103 l18 37 -54 -2 c-58 -1 -91 16
-129 68 -17 22 -21 42 -21 99 0 59 -3 72 -17 75 -16 3 -33 31 -24 40 10 9 93
-9 124 -28 36 -22 42 -54 13 -69 -10 -6 -21 -7 -25 -4 -3 3 -6 -12 -6 -34 0
-61 26 -88 84 -85 33 1 46 -2 46 -12 0 -8 8 -23 18 -35 17 -21 17 -20 17 46 1
58 9 89 54 208 131 343 232 553 409 848 76 126 77 127 113 127 27 0 45 8 68
29 34 32 39 52 16 74 -13 13 -10 17 23 31 54 22 55 21 26 -30z m2455 -254 c41
-12 86 -52 111 -100 10 -19 86 -215 170 -435 124 -327 153 -412 157 -467 5
-64 4 -68 -24 -96 -20 -21 -46 -33 -84 -40 -32 -7 -239 -12 -509 -14 -767 -4
-2406 3 -2559 11 l-144 8 -29 32 c-43 48 -39 109 18 284 47 146 237 638 276
715 25 50 67 86 118 100 48 14 2452 16 2499 2z m955 -1870 c21 -16 49 -44 63
-62 26 -34 97 -177 91 -183 -2 -2 -19 25 -37 61 -35 68 -114 164 -135 164 -6
0 -38 -27 -71 -61 -33 -33 -109 -99 -170 -146 -60 -48 -144 -115 -185 -151
-41 -36 -88 -77 -105 -91 -47 -41 57 83 154 182 47 49 128 122 179 164 51 41
105 92 120 113 15 22 34 39 42 39 8 0 32 -13 54 -29z m-4275 -47 c29 -35 97
-99 150 -140 124 -97 287 -266 295 -305 5 -25 -22 -4 -172 139 -270 255 -360
333 -385 333 -12 0 -38 -10 -57 -21 l-35 -21 20 22 c29 34 76 60 105 59 18 0
40 -18 79 -66z m-128 -59 c31 -33 54 -45 110 -58 37 -9 68 -29 144 -96 l97
-85 -73 -5 c-151 -12 -249 -102 -295 -273 -22 -82 -17 -122 31 -239 10 -25
-25 -13 -66 23 -33 28 -33 29 -7 19 49 -17 39 7 -24 60 -39 33 -64 47 -68 40
-4 -6 -17 12 -31 42 -34 77 -38 200 -9 304 37 135 123 294 160 294 3 0 17 -12
31 -26z m4455 -40 c39 -61 98 -188 66 -144 -28 40 -73 90 -82 90 -4 0 -33 -34
-65 -75 -32 -42 -71 -86 -88 -99 -30 -24 -30 -53 1 -41 20 8 117 -92 143 -148
12 -28 19 -65 19 -109 0 -37 4 -69 9 -72 15 -10 60 34 92 88 29 49 30 50 24
16 -7 -37 -41 -120 -49 -120 -2 0 -2 9 1 20 6 23 -9 26 -27 6 -6 -8 -27 -24
-45 -35 l-33 -19 -4 72 c-4 93 -46 181 -126 263 -69 73 -109 94 -185 102 l-57
6 110 85 c61 47 128 94 148 104 20 10 51 29 67 42 17 13 33 24 38 24 4 0 23
-25 43 -56z m-4072 -263 c24 -10 88 -62 144 -116 108 -103 162 -187 162 -250
0 -57 -86 -115 -172 -115 -39 0 -313 34 -365 45 -12 3 -36 25 -53 49 -153 224
45 493 284 387z m3817 -9 c51 -33 91 -78 121 -135 39 -78 9 -211 -61 -270 -25
-20 -45 -27 -108 -32 -43 -3 -114 -11 -158 -16 -211 -26 -222 -25 -284 46 -38
43 -38 61 -5 128 29 58 231 263 287 291 19 9 58 16 98 16 55 0 72 -5 110 -28z
m-4461 -183 c0 -5 14 -45 31 -89 40 -105 105 -177 197 -221 160 -76 427 -146
516 -135 72 8 163 55 234 120 55 52 62 62 62 96 0 21 -9 60 -20 86 -11 26 -19
49 -17 51 2 2 57 0 122 -3 l118 -7 54 -44 c63 -51 76 -57 168 -72 177 -29 453
-43 955 -48 540 -5 692 1 905 37 162 28 210 45 262 93 l46 42 141 5 c77 3 143
5 145 3 2 -1 -10 -30 -27 -64 -36 -73 -33 -91 31 -158 55 -57 179 -139 224
-147 70 -13 345 64 518 145 132 62 213 160 231 278 3 24 10 43 14 43 9 0 53
-178 70 -280 6 -36 13 -122 17 -192 13 -265 -69 -861 -146 -1063 -54 -141 -99
-185 -251 -249 -25 -11 -48 -21 -52 -23 -3 -2 -9 5 -13 16 -8 26 -30 27 -145
1 -49 -11 -128 -26 -174 -34 l-85 -13 -5 41 c-3 23 -13 124 -21 226 -9 102
-23 219 -32 260 -8 41 -58 181 -110 310 -53 129 -97 240 -100 246 -4 11 -79
48 -120 59 -12 3 -592 6 -1290 7 -971 1 -1278 -2 -1311 -11 -90 -25 -101 -44
-211 -371 -54 -162 -101 -306 -104 -320 -3 -14 -13 -115 -22 -225 -9 -110 -21
-204 -26 -210 -6 -6 -65 1 -172 23 -171 35 -221 39 -233 21 -9 -16 -74 -5
-127 20 -52 25 -140 110 -175 170 -40 68 -68 155 -95 296 -72 375 -94 752 -57
985 21 134 63 319 72 314 4 -3 8 -10 8 -15z m3385 -1004 l0 -200 -855 0 -855
0 -3 190 c-1 104 0 195 2 202 4 11 170 13 858 11 l853 -3 0 -200z m-3461 -115
l18 -135 -335 -610 c-184 -336 -339 -610 -343 -609 -5 0 -40 46 -78 102 l-69
101 338 568 c186 312 361 606 388 651 27 46 52 80 56 75 4 -4 16 -69 25 -143z
m5372 -465 c163 -275 299 -507 301 -516 4 -15 -114 -219 -127 -219 -3 0 -126
219 -273 487 l-267 487 20 115 c28 157 30 165 40 155 4 -5 142 -234 306 -509z
m-2759 -570 c3 -51 43 -1854 43 -1912 l0 -33 -152 0 c-84 0 -158 4 -164 8 -8
5 -5 284 8 992 10 542 20 990 22 995 2 6 47 8 122 5 l119 -5 2 -50z"/>
<path d="M6569 6474 c-8 -9 -73 -127 -144 -263 l-130 -246 -63 -42 c-73 -49
-128 -61 -210 -44 -110 22 -172 93 -172 197 0 62 39 144 84 179 52 40 145 59
253 51 l93 -7 0 84 0 84 -37 7 c-71 11 -257 6 -322 -9 -127 -30 -226 -110
-279 -223 -24 -51 -27 -68 -27 -172 0 -106 2 -120 28 -172 69 -140 235 -208
474 -195 57 3 110 10 119 15 12 7 58 -10 173 -64 86 -41 165 -74 176 -74 26 0
465 240 478 261 18 29 -1 48 -101 98 l-98 49 -39 99 c-89 227 -156 379 -172
391 -24 17 -68 15 -84 -4z m122 -112 c11 -11 69 -155 65 -160 -3 -2 -31 -6
-63 -9 l-59 -5 -13 43 -14 44 -20 -42 c-18 -36 -25 -42 -55 -45 -35 -3 -36 -4
-68 -100 l-33 -98 22 -15 c14 -10 25 -11 31 -5 6 6 49 10 97 10 78 0 94 4 163
35 l77 35 15 -35 c7 -19 14 -37 14 -40 0 -3 -28 -19 -62 -35 -58 -26 -60 -29
-31 -29 17 -1 44 4 60 10 49 18 14 -5 -40 -26 -43 -18 -52 -26 -52 -46 0 -24
2 -24 94 -27 105 -3 99 -11 64 80 -9 26 -15 50 -11 53 10 11 178 -78 178 -95
0 -10 -83 -60 -231 -139 -268 -144 -215 -140 -434 -35 -172 81 -176 97 -18 80
l61 -6 12 35 c6 19 9 39 5 45 -12 20 -147 52 -194 46 -39 -5 -43 -4 -27 7 87
58 90 62 199 273 l108 209 77 -3 c42 -2 80 -7 83 -10z"/>
<path d="M3867 6463 c-4 -3 -7 -65 -7 -137 0 -119 -8 -265 -26 -524 l-7 -92
309 2 309 3 3 86 3 85 -58 -3 c-32 -1 -115 -4 -185 -6 l-128 -4 0 58 c0 94 -9
89 165 89 l152 0 7 46 c3 26 6 62 6 80 l0 34 -155 0 -155 0 0 65 0 65 184 0
c211 0 196 -8 196 103 l0 57 -303 0 c-167 0 -307 -3 -310 -7z"/>
<path d="M4636 6438 c-3 -18 -10 -112 -16 -208 -7 -96 -19 -251 -29 -343 -9
-93 -14 -170 -12 -173 2 -2 44 -4 93 -4 62 0 90 4 93 13 2 6 9 93 14 192 6 99
14 212 17 250 l7 70 38 -160 c21 -88 48 -206 60 -262 l22 -103 103 0 103 0 87
266 c47 146 87 264 89 262 1 -2 -1 -91 -6 -198 -4 -107 -8 -225 -9 -262 l0
-68 99 0 98 0 7 218 c3 119 9 290 12 380 l7 162 -156 0 -155 0 -40 -112 c-22
-62 -55 -161 -73 -220 -19 -59 -36 -108 -39 -108 -3 0 -27 98 -55 218 l-50
217 -152 3 -152 3 -5 -33z"/>
<path d="M3201 5815 c-79 -67 -116 -250 -73 -364 32 -83 62 -122 92 -119 23 3
25 7 31 73 6 83 14 99 91 189 32 37 58 71 56 75 -2 4 -30 44 -63 89 -67 91
-84 98 -134 57z"/>
<path d="M5460 5153 c0 -5 -14 -17 -30 -28 -16 -11 -30 -24 -30 -30 0 -5 19
-27 41 -47 23 -21 40 -41 37 -44 -3 -2 -27 0 -53 6 -27 6 -52 7 -57 2 -9 -9
73 -82 93 -82 23 0 109 54 109 68 0 8 -18 31 -40 50 -23 19 -39 37 -36 40 3 3
15 -3 26 -13 18 -16 23 -17 45 -5 35 19 31 31 -19 63 -41 25 -86 36 -86 20z"/>
<path d="M2574 9101 c-89 -54 -154 -158 -154 -246 0 -56 30 -131 74 -182 35
-42 120 -83 170 -83 73 0 183 66 237 141 l20 28 -27 41 c-15 22 -29 40 -31 40
-2 0 -28 -24 -57 -54 -83 -85 -157 -86 -221 -2 -57 75 -40 161 45 224 25 19
47 39 49 44 4 12 -48 68 -63 68 -6 0 -25 -9 -42 -19z"/>
<path d="M7988 8956 c-93 -89 -168 -167 -168 -172 0 -10 234 -226 252 -233 9
-3 78 57 78 69 0 3 -36 36 -80 74 l-81 69 27 29 c15 15 31 28 35 28 4 0 35
-25 67 -55 33 -30 64 -55 69 -55 5 0 24 13 43 30 l35 30 -68 66 -69 66 23 24
c12 13 28 24 35 24 6 0 43 -29 82 -65 38 -36 74 -65 79 -65 5 0 24 15 41 33
l33 34 -124 116 c-69 65 -129 117 -133 116 -5 0 -84 -73 -176 -163z"/>
<path d="M2195 8724 c-104 -105 -115 -213 -24 -259 22 -12 57 -15 133 -14 106
2 126 -2 126 -26 0 -21 -49 -74 -88 -94 l-35 -18 48 -37 c47 -35 49 -36 74
-20 110 70 160 185 112 257 -36 56 -56 62 -178 60 -96 -2 -112 0 -118 14 -7
21 21 61 63 88 17 11 31 22 32 25 0 7 -81 70 -91 70 -4 0 -28 -21 -54 -46z"/>
<path d="M8514 8657 c-110 -98 -185 -157 -209 -163 -34 -9 -69 16 -91 65 -11
22 -21 41 -24 41 -3 0 -23 -18 -45 -40 l-38 -39 36 -56 c52 -77 107 -115 167
-115 45 0 52 5 201 125 85 69 155 129 157 133 1 4 -19 29 -46 55 l-48 47 -60
-53z"/>
<path d="M1898 8378 c-46 -62 -93 -127 -105 -143 l-21 -31 179 -147 c99 -82
185 -150 192 -152 7 -3 58 59 115 138 l104 142 -39 32 c-21 18 -40 33 -44 33
-3 0 -34 -41 -69 -90 l-63 -90 -26 22 c-14 13 -30 26 -34 29 -5 4 17 41 48 83
32 42 56 78 54 79 -2 2 -19 15 -37 30 -19 15 -37 27 -41 27 -7 0 -56 -65 -103
-134 -7 -11 -56 18 -64 39 -3 8 22 50 56 95 67 88 67 89 9 131 l-28 20 -83
-113z"/>
<path d="M8620 8415 c-57 -18 -124 -75 -150 -126 -27 -53 -27 -154 0 -212 30
-63 72 -109 128 -140 93 -50 175 -46 266 14 106 70 136 196 75 317 -62 126
-195 187 -319 147z m154 -129 c71 -30 97 -107 56 -173 -52 -85 -171 -102 -234
-32 -25 28 -28 38 -24 81 10 98 113 161 202 124z"/>
<path d="M8075 2255 l-148 -157 37 -36 37 -37 47 54 48 53 80 -83 c45 -46 98
-103 119 -126 20 -24 42 -43 49 -42 6 1 30 23 54 49 l44 49 -121 124 c-67 68
-121 128 -121 133 0 4 21 30 47 56 l47 48 -35 36 -36 35 -148 -156z"/>
<path d="M2542 2289 c-55 -27 -119 -101 -133 -152 -21 -79 16 -170 104 -256
77 -75 79 -76 126 -44 22 16 40 30 41 33 0 3 -23 23 -50 43 -58 44 -90 89 -90
130 0 57 45 112 103 128 58 15 114 -9 175 -76 l49 -54 32 33 c17 17 31 37 31
43 0 6 -27 39 -61 73 -108 110 -230 147 -327 99z"/>
<path d="M7824 2007 c-102 -75 -144 -147 -144 -247 0 -87 37 -153 114 -204 91
-61 261 -8 351 110 l26 34 -26 45 -27 45 -45 -50 c-25 -28 -58 -57 -74 -65
-93 -49 -200 31 -186 138 8 60 75 131 152 161 12 4 -54 76 -71 76 -6 0 -38
-19 -70 -43z"/>
<path d="M2920 1859 c-118 -54 -223 -102 -233 -106 -16 -7 -10 -16 43 -57 l62
-49 65 32 65 32 69 -52 c38 -28 69 -52 69 -52 0 -1 -9 -26 -20 -55 -11 -29
-20 -58 -20 -65 0 -21 113 -99 121 -84 18 32 138 451 132 457 -24 20 -132 100
-135 99 -2 0 -100 -45 -218 -100z"/>
<path d="M7343 1644 l-73 -45 5 -57 c3 -31 10 -147 16 -257 5 -109 11 -200 12
-201 1 -1 30 16 65 39 l63 40 -6 72 -7 73 69 41 c38 23 74 41 80 41 5 0 31
-18 57 -41 l46 -41 65 38 c36 21 65 41 65 44 -1 5 -368 294 -379 297 -3 1 -39
-19 -78 -43z"/>
<path d="M3415 1637 c-38 -17 -102 -88 -121 -133 -20 -48 -18 -128 6 -173 10
-22 38 -55 60 -74 46 -39 149 -97 173 -97 18 0 80 72 69 80 -4 4 -26 12 -50
19 -96 27 -155 125 -115 193 55 95 157 102 264 17 l39 -30 22 46 23 47 -30 24
c-17 14 -59 39 -95 57 -53 26 -78 32 -140 35 -47 1 -86 -3 -105 -11z"/>
<path d="M3773 1301 c-57 -110 -103 -202 -103 -205 0 -11 123 -67 130 -59 14
15 200 380 200 391 0 9 -109 73 -122 72 -2 0 -49 -90 -105 -199z"/>
<path d="M6982 1459 c-35 -16 -62 -33 -60 -38 53 -143 165 -411 172 -411 5 0
35 12 68 27 43 19 58 31 55 42 -8 30 -159 396 -166 403 -3 3 -35 -7 -69 -23z"/>
<path d="M4130 1335 c-112 -36 -186 -183 -146 -290 34 -87 141 -155 321 -200
135 -34 147 -34 173 14 l22 38 -43 9 -42 9 35 22 c67 41 102 140 80 222 -35
132 -248 225 -400 176z m185 -99 c51 -22 77 -69 72 -134 -11 -152 -220 -181
-267 -36 -27 81 48 181 138 183 12 1 38 -5 57 -13z"/>
<path d="M6595 1306 c-149 -49 -186 -67 -181 -84 3 -10 31 -107 62 -217 31
-110 57 -201 58 -203 2 -1 58 16 126 38 142 46 207 84 237 137 60 108 24 263
-76 330 -45 31 -132 30 -226 -1z m134 -102 c32 -23 51 -73 51 -134 0 -43 -5
-56 -28 -80 -25 -25 -107 -60 -115 -49 -10 13 -67 242 -62 247 12 13 70 30
100 31 17 1 41 -6 54 -15z"/>
<path d="M4674 1206 c-14 -41 -64 -298 -64 -332 0 -78 71 -134 197 -155 87
-14 166 0 212 39 29 25 35 41 71 191 22 90 40 169 40 176 0 13 -78 35 -123 35
-20 0 -25 -8 -36 -62 -32 -158 -52 -223 -78 -250 -35 -36 -80 -38 -113 -3 -20
22 -22 30 -16 83 4 33 17 104 31 158 13 55 21 101 18 104 -2 3 -34 10 -70 16
-47 8 -66 8 -69 0z"/>
<path d="M6086 1184 c-43 -7 -79 -14 -81 -16 -8 -9 -166 -480 -162 -484 3 -3
38 1 78 8 l72 13 18 62 c9 34 20 66 23 71 3 5 29 12 59 15 29 4 66 9 83 13 28
5 31 3 59 -56 l29 -61 45 7 c26 3 61 9 79 13 l32 6 -122 213 c-67 116 -125
211 -128 211 -3 -1 -40 -7 -84 -15z"/>
<path d="M5206 1095 c-11 -83 -39 -406 -35 -409 2 -2 85 -7 185 -11 l181 -8 6
24 c4 13 7 36 7 52 l0 27 -115 0 -115 0 0 33 c0 52 8 56 110 59 l95 3 3 43 3
42 -95 0 -96 0 0 39 c0 22 3 42 8 44 4 3 54 1 112 -2 58 -4 107 -6 109 -5 2 2
6 23 8 47 l5 45 -113 6 c-63 3 -146 7 -186 9 l-71 3 -6 -41z"/>
</g>
</svg>
